***
Start download at 20240509-185446
2024-05-09T18:54:58.052Z get-attribute args url=https://m.twitch.tv/gigaohmbiological selector=a[href^="/videos"] attribute=href useProp=true timeout=10000 launchargs={"headless":true,"args":["--no-sandbox","--disable-setuid-sandbox"]}
2024-05-09T18:54:58.330Z get-attribute launched successfully
2024-05-09T18:55:00.463Z get-attribute navigated to url successfully
2024-05-09T18:55:01.140Z get-attribute waited for selector successfully
2024-05-09T18:55:01.140Z get-attribute got attribute value https://m.twitch.tv/videos/2141349717
npm notice 
npm notice New minor version of npm available! 10.5.1 -> 10.7.0
npm notice Changelog: <https://github.com/npm/cli/releases/tag/v10.7.0>
npm notice Run `npm install -g npm@10.7.0` to update!
npm notice 
Looking up video...
Fetching access token...
Fetching playlists...
Fetching playlist...
Joining files...
size=       0kB time=00:00:00.00 bitrate=N/A speed=N/A    size=   78336kB time=01:03:22.17 bitrate= 168.8kbits/s speed=7.6e+03x    size=  156160kB time=02:06:39.46 bitrate= 168.3kbits/s speed=7.6e+03x    size=  157892kB time=02:06:48.68 bitrate= 170.0kbits/s speed=7.51e+03x    
Deleting temporary files...
bio_trac_webinar_exosomes_kashanchi_5_14_20_study_hall_9_may_2024_gigaohm_biological_high_resistance_low_noise_information_brief.m4a
DOWNLOAD_OK
